<svg xmlns="http://www.w3.org/2000/svg" xmlns:xlink="http://www.w3.org/1999/xlink" version="1.1" x="0px" y="0px" viewBox="0 0 100 125" enable-background="new 0 0 100 100" xml:space="preserve"><g><path d="M23.498,47.523v5.668c0,0.229,0.193,0.426,0.424,0.426h52.156c0.23,0,0.424-0.196,0.424-0.426v-5.668   c0-6.31,4.708-11.485,10.78-12.326v-6.646c0-4.234-3.443-7.681-7.674-7.681H20.395c-4.234,0-7.681,3.447-7.681,7.681v6.646   C18.79,36.038,23.498,41.213,23.498,47.523z"/><path d="M88.991,38.44c-5.005,0-9.075,4.074-9.075,9.083v5.668c0,2.118-1.722,3.843-3.841,3.843H23.922   c-2.119,0-3.84-1.725-3.84-3.843v-5.668c0-5.009-4.071-9.083-9.076-9.083c-5.004,0-9.075,4.074-9.075,9.083v5.668   c0,9.509,6.078,17.604,14.542,20.668c0.354,2.966,2.848,5.271,5.908,5.271c2.586,0,4.765-1.649,5.6-3.943h44.037   c0.834,2.294,3.017,3.943,5.599,3.943c3.062,0,5.556-2.305,5.909-5.271C91.99,70.795,98.069,62.7,98.069,53.191v-5.668   C98.069,42.514,93.995,38.44,88.991,38.44z"/></g><text x="0" y="115" fill="#000000" font-size="5px" font-weight="bold" font-family="'Helvetica Neue', Helvetica, Arial-Unicode, Arial, Sans-serif">Created by Diego Naive</text><text x="0" y="120" fill="#000000" font-size="5px" font-weight="bold" font-family="'Helvetica Neue', Helvetica, Arial-Unicode, Arial, Sans-serif">from the Noun Project</text></svg>